<?xml version="1.0" encoding="UTF-8" standalone="no"?> <svg id="Layer_1" data-name="Layer 1" xmlns="http://www.w3.org/2000/svg" viewBox="0 0 24 24"><title>Danger, Warning, mobile, phone, smartphone</title><path d="M23.7,20.31,20,13.38V2.12A2.12,2.12,0,0,0,17.88,0H6.12A2.12,2.12,0,0,0,4,2.12V21.88A2.12,2.12,0,0,0,6.12,24H21.61a2.37,2.37,0,0,0,2-1.17A2.57,2.57,0,0,0,23.7,20.31ZM10,2h4V3H10ZM6,21.88V2.12A.12.12,0,0,1,6.12,2H8V3.31A1.69,1.69,0,0,0,9.69,5h4.62A1.69,1.69,0,0,0,16,3.31V2h1.88a.12.12,0,0,1,.12.12v8.22A2.33,2.33,0,0,0,16.79,10a2.37,2.37,0,0,0-2.09,1.28l-4.82,9A2.54,2.54,0,0,0,9.64,22H6.12A.12.12,0,0,1,6,21.88Zm15.92-.08a.36.36,0,0,1-.31.2H12a.39.39,0,0,1-.32-.2.58.58,0,0,1,0-.55l4.82-9a.38.38,0,0,1,.33-.22.36.36,0,0,1,.32.22l4.83,9A.54.54,0,0,1,21.92,21.8Z"/><path d="M16.79,14a1,1,0,0,0-1,1v2a1,1,0,0,0,2,0V15A1,1,0,0,0,16.79,14Z"/><circle cx="16.79" cy="20" r="1"/></svg>