<?xml version="1.0" encoding="UTF-8" standalone="no"?> <svg id="Layer_1" data-name="Layer 1" xmlns="http://www.w3.org/2000/svg" viewBox="0 0 24 24"><title>mobile, phone, smartphone, Danger, Alert</title><path d="M24,14a7,7,0,0,0-4-6.31V2.12A2.12,2.12,0,0,0,17.88,0H6.12A2.12,2.12,0,0,0,4,2.12V21.88A2.12,2.12,0,0,0,6.12,24H17.88A2.12,2.12,0,0,0,20,21.88V20.31A7,7,0,0,0,24,14ZM10,2h4V3H10Zm8,19.88a.12.12,0,0,1-.12.12H6.12A.12.12,0,0,1,6,21.88V2.12A.12.12,0,0,1,6.12,2H8V3.31A1.69,1.69,0,0,0,9.69,5h4.62A1.69,1.69,0,0,0,16,3.31V2h1.88a.12.12,0,0,1,.12.12v5A6.63,6.63,0,0,0,17,7a7,7,0,0,0,0,14,6.63,6.63,0,0,0,1-.08ZM17,19a5,5,0,1,1,5-5A5,5,0,0,1,17,19Z"/><rect x="16" y="10" width="2" height="5"/><circle cx="17" cy="17" r="1"/></svg>